<svg width="11" height="11" viewBox="0 0 11 11" fill="none" xmlns="http://www.w3.org/2000/svg">
<g clip-path="url(#clip0_92_198)">
<path d="M9.47247 2.92779C9.48545 2.92022 9.49621 2.90939 9.50369 2.89636C9.51117 2.88334 9.51511 2.86858 9.51511 2.85356C9.51511 2.83854 9.51117 2.82379 9.50369 2.81076C9.49621 2.79774 9.48545 2.7869 9.47247 2.77933L6.19095 0.872811C5.98098 0.751106 5.7426 0.687012 5.49991 0.687012C5.25722 0.687012 5.01883 0.751106 4.80886 0.872811L1.52798 2.77933C1.51501 2.7869 1.50425 2.79774 1.49677 2.81076C1.48929 2.82379 1.48535 2.83854 1.48535 2.85356C1.48535 2.86858 1.48929 2.88334 1.49677 2.89636C1.50425 2.90939 1.51501 2.92022 1.52798 2.92779L5.45704 5.23908C5.47026 5.24686 5.48532 5.25097 5.50066 5.25097C5.516 5.25097 5.53105 5.24686 5.54427 5.23908L9.47247 2.92779Z" fill="white"/>
<path d="M1.16016 3.51212C1.14705 3.50456 1.13218 3.50059 1.11705 3.50061C1.10192 3.50063 1.08706 3.50465 1.07398 3.51226C1.0609 3.51987 1.05006 3.5308 1.04256 3.54394C1.03505 3.55708 1.03115 3.57197 1.03125 3.58711V7.32302C1.03158 7.50306 1.07903 7.67987 1.16888 7.83587C1.25874 7.99188 1.38787 8.12164 1.54344 8.21226L5.02735 10.3012C5.0404 10.3087 5.05521 10.3127 5.07029 10.3127C5.08537 10.3127 5.10018 10.3087 5.11325 10.3012C5.12631 10.2937 5.13716 10.2828 5.14471 10.2698C5.15225 10.2567 5.15624 10.2419 5.15625 10.2268V5.89238C5.15624 5.87731 5.15226 5.86251 5.14472 5.84946C5.13717 5.83641 5.12633 5.82558 5.11328 5.81804L1.16016 3.51212Z" fill="white"/>
<path d="M5.84375 5.90741V10.2258C5.84377 10.2408 5.84775 10.2557 5.8553 10.2687C5.86285 10.2818 5.8737 10.2926 5.88676 10.3001C5.89982 10.3077 5.91463 10.3116 5.92971 10.3116C5.94479 10.3116 5.9596 10.3076 5.97266 10.3001L9.45635 8.21118C9.61179 8.12068 9.74087 7.9911 9.83076 7.8353C9.92064 7.67949 9.96821 7.50289 9.96875 7.32302V3.5871C9.9687 3.57204 9.96469 3.55726 9.95712 3.54424C9.94956 3.53122 9.9387 3.52041 9.92565 3.5129C9.91259 3.5054 9.89779 3.50145 9.88274 3.50146C9.86768 3.50148 9.85288 3.50545 9.83984 3.51298L5.88672 5.83329C5.8737 5.84081 5.86288 5.85161 5.85534 5.86461C5.8478 5.87762 5.8438 5.89238 5.84375 5.90741Z" fill="white"/>
</g>
<defs>
<clipPath id="clip0_92_198">
<rect width="11" height="11" fill="white"/>
</clipPath>
</defs>
</svg>
