<svg width="11" height="11" viewBox="0 0 11 11" fill="none" xmlns="http://www.w3.org/2000/svg">
<path d="M4.68574 3.59191C4.68574 3.87121 4.68574 4.14191 4.77383 4.39542C3.84785 5.48253 1.40293 8.35499 1.1752 8.57413C1.12993 8.61474 1.09373 8.66443 1.06893 8.71995C1.04413 8.77547 1.03129 8.83559 1.03125 8.8964C1.03125 9.07902 1.14297 9.25519 1.2375 9.35402C1.3793 9.50226 1.98516 10.063 2.09687 9.95558C2.42773 9.63331 2.49434 9.54738 2.62969 9.41417C2.83379 9.21437 2.6082 8.80617 2.6791 8.64074C2.75 8.47531 2.8252 8.44308 2.94766 8.4173C3.07012 8.39152 3.28711 8.4796 3.45684 8.48175C3.63516 8.4839 3.73184 8.4087 3.86504 8.2841C3.97246 8.18527 4.0498 8.09288 4.05195 7.94894C4.05625 7.75558 3.77695 7.49992 3.98535 7.29581C4.19375 7.09171 4.49453 7.42902 4.71582 7.40324C4.93711 7.37746 5.20566 7.07023 5.23359 6.93917C5.26152 6.80812 4.98223 6.47081 5.02519 6.2796C5.04023 6.21515 5.17129 6.06476 5.27012 6.04328C5.36894 6.02179 5.80723 6.19152 5.90605 6.17003C6.02637 6.14425 6.16601 6.01749 6.27988 5.9466C6.61289 6.09054 6.91582 6.14855 7.30469 6.14855C8.77637 6.14855 9.96875 5.00128 9.96875 3.58761C9.96875 2.17394 8.77637 1.03162 7.30469 1.03162C5.83301 1.03162 4.68574 2.17824 4.68574 3.59191ZM8.59375 3.09412C8.59375 3.23009 8.55343 3.36301 8.47788 3.47607C8.40234 3.58913 8.29497 3.67725 8.16934 3.72928C8.04372 3.78132 7.90549 3.79493 7.77212 3.76841C7.63876 3.74188 7.51626 3.6764 7.42011 3.58025C7.32397 3.4841 7.25849 3.3616 7.23196 3.22824C7.20543 3.09488 7.21905 2.95665 7.27108 2.83102C7.32312 2.7054 7.41124 2.59802 7.52429 2.52248C7.63735 2.44694 7.77027 2.40662 7.90625 2.40662C8.08859 2.40662 8.26345 2.47905 8.39239 2.60798C8.52132 2.73691 8.59375 2.91178 8.59375 3.09412Z" fill="white"/>
</svg>
