<svg width="940" height="35" viewBox="0 0 940 35" fill="none" xmlns="http://www.w3.org/2000/svg">
<rect x="789.5" width="150" height="35" rx="17.5" fill="white"/>
<g clip-path="url(#clip0_92_157)">
<g clip-path="url(#clip1_92_157)">
<path d="M829.393 13.8102H834.495V15.0748H830.887V16.7301H834.046V17.9801H830.887V20.9977H829.393V13.8102ZM838.284 15.5485C838.31 15.5485 838.331 15.5501 838.348 15.5533C838.367 15.5533 838.408 15.555 838.47 15.5582V16.984C838.382 16.9742 838.304 16.9677 838.235 16.9645C838.167 16.9612 838.112 16.9596 838.069 16.9596C837.509 16.9596 837.133 17.1419 836.941 17.5065C836.834 17.7115 836.78 18.0273 836.78 18.4537V20.9977H835.379V15.6754H836.707V16.6031C836.922 16.2483 837.109 16.0058 837.269 15.8756C837.529 15.6575 837.868 15.5485 838.284 15.5485ZM841.39 16.6813C841.067 16.6813 840.817 16.7822 840.638 16.984C840.462 17.1858 840.351 17.4593 840.306 17.8043H842.469C842.446 17.4365 842.334 17.1582 842.132 16.9694C841.933 16.7773 841.686 16.6813 841.39 16.6813ZM841.39 15.5338C841.832 15.5338 842.231 15.6168 842.586 15.7828C842.941 15.9489 843.234 16.2109 843.465 16.569C843.673 16.8847 843.808 17.2509 843.87 17.6676C843.906 17.9117 843.921 18.2633 843.914 18.7223H840.271C840.291 19.2561 840.459 19.6305 840.774 19.8453C840.966 19.9788 841.198 20.0455 841.468 20.0455C841.754 20.0455 841.987 19.9642 842.166 19.8014C842.264 19.7135 842.35 19.5914 842.425 19.4352H843.846C843.81 19.7509 843.646 20.0716 843.353 20.3971C842.897 20.9147 842.259 21.1735 841.438 21.1735C840.761 21.1735 840.164 20.9554 839.646 20.5192C839.129 20.083 838.87 19.3733 838.87 18.3903C838.87 17.469 839.103 16.7627 839.568 16.2711C840.037 15.7796 840.644 15.5338 841.39 15.5338ZM846.956 16.6813C846.634 16.6813 846.383 16.7822 846.204 16.984C846.028 17.1858 845.918 17.4593 845.872 17.8043H848.035C848.012 17.4365 847.9 17.1582 847.698 16.9694C847.5 16.7773 847.252 16.6813 846.956 16.6813ZM846.956 15.5338C847.399 15.5338 847.798 15.6168 848.152 15.7828C848.507 15.9489 848.8 16.2109 849.031 16.569C849.24 16.8847 849.375 17.2509 849.437 17.6676C849.472 17.9117 849.487 18.2633 849.48 18.7223H845.838C845.857 19.2561 846.025 19.6305 846.341 19.8453C846.533 19.9788 846.764 20.0455 847.034 20.0455C847.321 20.0455 847.553 19.9642 847.732 19.8014C847.83 19.7135 847.916 19.5914 847.991 19.4352H849.412C849.376 19.7509 849.212 20.0716 848.919 20.3971C848.463 20.9147 847.825 21.1735 847.005 21.1735C846.328 21.1735 845.73 20.9554 845.213 20.5192C844.695 20.083 844.437 19.3733 844.437 18.3903C844.437 17.469 844.669 16.7627 845.135 16.2711C845.604 15.7796 846.211 15.5338 846.956 15.5338ZM854.778 15.0504V19.7477H856.165C856.875 19.7477 857.369 19.3977 857.649 18.6979C857.802 18.3138 857.879 17.8564 857.879 17.3258C857.879 16.5934 857.763 16.0319 857.532 15.6412C857.304 15.2474 856.849 15.0504 856.165 15.0504H854.778ZM856.419 13.8004C856.865 13.8069 857.236 13.859 857.532 13.9567C858.037 14.1227 858.445 14.427 858.758 14.8698C859.008 15.2278 859.179 15.6152 859.271 16.0319C859.362 16.4485 859.407 16.8457 859.407 17.2233C859.407 18.1803 859.215 18.9908 858.831 19.6549C858.31 20.5501 857.506 20.9977 856.419 20.9977H853.318V13.8004H856.419ZM862.82 20.0162C863.227 20.0162 863.54 19.8714 863.758 19.5817C863.976 19.292 864.085 18.8802 864.085 18.3463C864.085 17.8125 863.976 17.4023 863.758 17.1158C863.54 16.8261 863.227 16.6813 862.82 16.6813C862.413 16.6813 862.099 16.8261 861.878 17.1158C861.66 17.4023 861.551 17.8125 861.551 18.3463C861.551 18.8802 861.66 19.292 861.878 19.5817C862.099 19.8714 862.413 20.0162 862.82 20.0162ZM865.545 18.3463C865.545 19.1276 865.32 19.7965 864.871 20.3531C864.422 20.9065 863.74 21.1832 862.825 21.1832C861.91 21.1832 861.229 20.9065 860.779 20.3531C860.33 19.7965 860.105 19.1276 860.105 18.3463C860.105 17.5781 860.33 16.9124 860.779 16.3492C861.229 15.7861 861.91 15.5045 862.825 15.5045C863.74 15.5045 864.422 15.7861 864.871 16.3492C865.32 16.9124 865.545 17.5781 865.545 18.3463ZM869.056 15.6754H870.467L871.277 19.5084L872.107 15.6754H873.558L872.015 20.9977H870.584L869.749 17.1207L868.904 20.9977H867.459L865.965 15.6754H867.459L868.289 19.4938L869.056 15.6754ZM877.278 15.5485C877.828 15.5485 878.278 15.6933 878.626 15.983C878.978 16.2695 879.153 16.7464 879.153 17.4137V20.9977H877.728V17.7604C877.728 17.4804 877.69 17.2656 877.615 17.1158C877.479 16.8424 877.218 16.7057 876.834 16.7057C876.362 16.7057 876.038 16.9059 875.862 17.3063C875.771 17.5179 875.726 17.788 875.726 18.1168V20.9977H874.339V15.6852H875.682V16.4615C875.861 16.1881 876.03 15.9912 876.189 15.8707C876.476 15.6559 876.839 15.5485 877.278 15.5485ZM881.863 20.9977H880.472V13.8004H881.863V20.9977ZM885.613 20.0162C886.02 20.0162 886.333 19.8714 886.551 19.5817C886.769 19.292 886.878 18.8802 886.878 18.3463C886.878 17.8125 886.769 17.4023 886.551 17.1158C886.333 16.8261 886.02 16.6813 885.613 16.6813C885.206 16.6813 884.892 16.8261 884.671 17.1158C884.453 17.4023 884.344 17.8125 884.344 18.3463C884.344 18.8802 884.453 19.292 884.671 19.5817C884.892 19.8714 885.206 20.0162 885.613 20.0162ZM888.338 18.3463C888.338 19.1276 888.113 19.7965 887.664 20.3531C887.215 20.9065 886.533 21.1832 885.618 21.1832C884.703 21.1832 884.021 20.9065 883.572 20.3531C883.123 19.7965 882.898 19.1276 882.898 18.3463C882.898 17.5781 883.123 16.9124 883.572 16.3492C884.021 15.7861 884.703 15.5045 885.618 15.5045C886.533 15.5045 887.215 15.7861 887.664 16.3492C888.113 16.9124 888.338 17.5781 888.338 18.3463ZM892.273 18.4098C892.186 18.4651 892.096 18.5107 892.005 18.5465C891.917 18.5791 891.795 18.61 891.639 18.6393L891.326 18.6979C891.033 18.75 890.823 18.8134 890.696 18.8883C890.481 19.0153 890.374 19.2122 890.374 19.4791C890.374 19.7168 890.439 19.8893 890.569 19.9967C890.703 20.1009 890.864 20.153 891.053 20.153C891.352 20.153 891.627 20.0651 891.878 19.8893C892.132 19.7135 892.264 19.3929 892.273 18.9274V18.4098ZM891.429 17.7604C891.686 17.7278 891.87 17.6871 891.98 17.6383C892.179 17.5537 892.278 17.4218 892.278 17.2428C892.278 17.0247 892.202 16.875 892.049 16.7936C891.899 16.7089 891.678 16.6666 891.385 16.6666C891.056 16.6666 890.823 16.748 890.687 16.9108C890.589 17.0312 890.524 17.194 890.491 17.399H889.148C889.178 16.9336 889.308 16.5511 889.539 16.2516C889.907 15.7828 890.538 15.5485 891.434 15.5485C892.016 15.5485 892.534 15.664 892.986 15.8951C893.439 16.1263 893.665 16.5625 893.665 17.2037V19.6451C893.665 19.8144 893.668 20.0195 893.675 20.2604C893.685 20.4427 893.712 20.5664 893.758 20.6315C893.803 20.6966 893.872 20.7503 893.963 20.7926V20.9977H892.449C892.407 20.8903 892.378 20.7893 892.361 20.6949C892.345 20.6005 892.332 20.4931 892.322 20.3727C892.13 20.581 891.909 20.7584 891.658 20.9049C891.359 21.0774 891.02 21.1637 890.643 21.1637C890.161 21.1637 889.762 21.027 889.446 20.7535C889.134 20.4768 888.978 20.0862 888.978 19.5817C888.978 18.9274 889.23 18.4537 889.734 18.1608C890.011 18.0013 890.418 17.8873 890.955 17.819L891.429 17.7604ZM896.868 15.5485C897.19 15.5485 897.477 15.6201 897.728 15.7633C897.978 15.9033 898.182 16.0986 898.338 16.3492V13.8102H899.749V20.9977H898.396V20.2604C898.198 20.5761 897.972 20.8056 897.718 20.9489C897.464 21.0921 897.148 21.1637 896.771 21.1637C896.149 21.1637 895.625 20.913 895.198 20.4117C894.775 19.9072 894.563 19.261 894.563 18.4733C894.563 17.5651 894.772 16.8505 895.188 16.3297C895.608 15.8089 896.168 15.5485 896.868 15.5485ZM897.171 19.9918C897.565 19.9918 897.864 19.8453 898.069 19.5524C898.274 19.2594 898.377 18.8802 898.377 18.4147C898.377 17.7636 898.213 17.2981 897.884 17.0182C897.682 16.8489 897.448 16.7643 897.181 16.7643C896.774 16.7643 896.474 16.9189 896.282 17.2281C896.093 17.5341 895.999 17.915 895.999 18.3707C895.999 18.8623 896.095 19.2561 896.287 19.5524C896.482 19.8453 896.777 19.9918 897.171 19.9918Z" fill="#2D3748"/>
</g>
<g clip-path="url(#clip2_92_157)">
<rect x="864.498" y="29.4977" width="0.00470312" height="0.00470312" fill="white"/>
</g>
</g>
<g clip-path="url(#clip3_92_157)">
<g clip-path="url(#clip4_92_157)">
<path d="M607.186 15.8396C607.186 16.1189 607.186 16.3896 607.274 16.6431C606.348 17.7302 603.903 20.6027 603.675 20.8218C603.63 20.8624 603.594 20.9121 603.569 20.9676C603.544 21.0232 603.531 21.0833 603.531 21.1441C603.531 21.3267 603.643 21.5029 603.737 21.6017C603.879 21.7499 604.485 22.3107 604.597 22.2033C604.928 21.881 604.994 21.7951 605.13 21.6619C605.334 21.462 605.108 21.0538 605.179 20.8884C605.25 20.723 605.325 20.6908 605.448 20.665C605.57 20.6392 605.787 20.7273 605.957 20.7294C606.135 20.7316 606.232 20.6564 606.365 20.5318C606.472 20.4329 606.55 20.3406 606.552 20.1966C606.556 20.0033 606.277 19.7476 606.485 19.5435C606.694 19.3394 606.995 19.6767 607.216 19.6509C607.437 19.6251 607.706 19.3179 607.734 19.1869C607.762 19.0558 607.482 18.7185 607.525 18.5273C607.54 18.4628 607.671 18.3124 607.77 18.291C607.869 18.2695 608.307 18.4392 608.406 18.4177C608.526 18.3919 608.666 18.2652 608.78 18.1943C609.113 18.3382 609.416 18.3962 609.805 18.3962C611.276 18.3962 612.469 17.249 612.469 15.8353C612.469 14.4216 611.276 13.2793 609.805 13.2793C608.333 13.2793 607.186 14.4259 607.186 15.8396ZM611.094 15.3418C611.094 15.4778 611.053 15.6107 610.978 15.7238C610.902 15.8368 610.795 15.9249 610.669 15.977C610.544 16.029 610.405 16.0426 610.272 16.0161C610.139 15.9896 610.016 15.9241 609.92 15.8279C609.824 15.7318 609.758 15.6093 609.732 15.4759C609.705 15.3426 609.719 15.2043 609.771 15.0787C609.823 14.9531 609.911 14.8457 610.024 14.7702C610.137 14.6946 610.27 14.6543 610.406 14.6543C610.589 14.6543 610.763 14.7267 610.892 14.8557C611.021 14.9846 611.094 15.1595 611.094 15.3418Z" fill="white"/>
<path d="M619.473 19.026C619.518 19.3548 619.608 19.6005 619.741 19.7633C619.985 20.0595 620.404 20.2076 620.996 20.2076C621.351 20.2076 621.639 20.1686 621.86 20.0905C622.28 19.9407 622.49 19.6624 622.49 19.2555C622.49 19.0179 622.386 18.8339 622.178 18.7037C621.969 18.5768 621.642 18.4645 621.196 18.3668L620.435 18.1959C619.686 18.0267 619.168 17.8427 618.882 17.6442C618.397 17.3121 618.154 16.7929 618.154 16.0865C618.154 15.442 618.389 14.9065 618.857 14.4801C619.326 14.0537 620.015 13.8405 620.923 13.8405C621.681 13.8405 622.327 14.0423 622.861 14.4459C623.398 14.8463 623.68 15.429 623.706 16.194H622.261C622.235 15.761 622.046 15.4534 621.694 15.2711C621.46 15.1507 621.169 15.0905 620.82 15.0905C620.433 15.0905 620.124 15.1686 619.893 15.3248C619.661 15.4811 619.546 15.6992 619.546 15.9791C619.546 16.2363 619.66 16.4283 619.888 16.5553C620.034 16.6399 620.347 16.7392 620.825 16.8531L622.065 17.151C622.609 17.2812 623.019 17.4554 623.296 17.6735C623.726 18.012 623.94 18.5019 623.94 19.1432C623.94 19.8007 623.688 20.3476 623.184 20.7838C622.682 21.2168 621.973 21.4332 621.055 21.4332C620.117 21.4332 619.38 21.22 618.843 20.7936C618.306 20.3639 618.037 19.7747 618.037 19.026H619.473ZM626.431 21.2477H624.937V14.0504H626.431V21.2477ZM632.676 16.2965C632.562 15.805 632.284 15.4615 631.841 15.2662C631.593 15.1588 631.318 15.1051 631.016 15.1051C630.436 15.1051 629.959 15.3248 629.585 15.7643C629.214 16.2005 629.028 16.858 629.028 17.7369C629.028 18.6224 629.23 19.249 629.634 19.6168C630.037 19.9847 630.496 20.1686 631.011 20.1686C631.515 20.1686 631.929 20.0237 632.251 19.734C632.573 19.441 632.772 19.0586 632.847 18.5865H631.182V17.3854H634.18V21.2477H633.184L633.032 20.3492C632.743 20.691 632.482 20.9319 632.251 21.0719C631.854 21.316 631.366 21.4381 630.786 21.4381C629.832 21.4381 629.051 21.1077 628.442 20.4469C627.808 19.7828 627.49 18.8746 627.49 17.7223C627.49 16.5569 627.811 15.6227 628.452 14.9196C629.093 14.2164 629.941 13.8649 630.996 13.8649C631.911 13.8649 632.645 14.0976 633.198 14.5631C633.755 15.0253 634.074 15.6031 634.155 16.2965H632.676ZM635.596 14.0504H637.173L640.039 19.0748V14.0504H641.44V21.2477H639.937L636.997 16.1354V21.2477H635.596V14.0504ZM647.007 21.2477H645.513V14.0504H647.007V21.2477ZM648.389 14.0504H649.966L652.832 19.0748V14.0504H654.233V21.2477H652.729L649.79 16.1354V21.2477H648.389V14.0504Z" fill="white"/>
</g>
<g clip-path="url(#clip5_92_157)">
<rect x="628.748" y="29.7477" width="0.00470312" height="0.00470312" fill="white"/>
</g>
</g>
<g clip-path="url(#clip6_92_157)">
<g clip-path="url(#clip7_92_157)">
<path d="M516.5 13.2784C514.036 13.2784 512.031 15.2831 512.031 17.7472C512.031 20.2112 514.036 22.2159 516.5 22.2159C518.964 22.2159 520.969 20.2112 520.969 17.7472C520.969 15.2831 518.964 13.2784 516.5 13.2784ZM515.421 15.7882C515.693 15.4997 516.076 15.3409 516.5 15.3409C516.924 15.3409 517.303 15.5008 517.577 15.7908C517.854 16.0847 517.988 16.4796 517.956 16.9041C517.893 17.7472 517.24 18.4347 516.5 18.4347C515.76 18.4347 515.106 17.7472 515.044 16.9039C515.012 16.476 515.146 16.0798 515.421 15.7882ZM516.5 21.5284C515.995 21.5288 515.496 21.4277 515.031 21.2313C514.565 21.0349 514.145 20.7471 513.793 20.385C513.994 20.0978 514.251 19.8536 514.548 19.6666C515.096 19.3156 515.789 19.1222 516.5 19.1222C517.211 19.1222 517.904 19.3156 518.451 19.6666C518.749 19.8535 519.005 20.0977 519.207 20.385C518.855 20.7472 518.435 21.035 517.97 21.2314C517.505 21.4278 517.005 21.5288 516.5 21.5284Z" fill="white"/>
<path d="M528.029 19.026C528.075 19.3548 528.164 19.6005 528.298 19.7633C528.542 20.0595 528.96 20.2076 529.553 20.2076C529.908 20.2076 530.196 20.1686 530.417 20.0905C530.837 19.9407 531.047 19.6624 531.047 19.2555C531.047 19.0179 530.943 18.8339 530.734 18.7037C530.526 18.5768 530.199 18.4645 529.753 18.3668L528.991 18.1959C528.243 18.0267 527.725 17.8427 527.438 17.6442C526.953 17.3121 526.711 16.7929 526.711 16.0865C526.711 15.442 526.945 14.9065 527.414 14.4801C527.883 14.0537 528.571 13.8405 529.479 13.8405C530.238 13.8405 530.884 14.0423 531.418 14.4459C531.955 14.8463 532.237 15.429 532.263 16.194H530.817C530.791 15.761 530.603 15.4534 530.251 15.2711C530.017 15.1507 529.725 15.0905 529.377 15.0905C528.99 15.0905 528.68 15.1686 528.449 15.3248C528.218 15.4811 528.103 15.6992 528.103 15.9791C528.103 16.2363 528.216 16.4283 528.444 16.5553C528.591 16.6399 528.903 16.7392 529.382 16.8531L530.622 17.151C531.166 17.2812 531.576 17.4554 531.853 17.6735C532.282 18.012 532.497 18.5019 532.497 19.1432C532.497 19.8007 532.245 20.3476 531.74 20.7838C531.239 21.2168 530.529 21.4332 529.611 21.4332C528.674 21.4332 527.937 21.22 527.399 20.7936C526.862 20.3639 526.594 19.7747 526.594 19.026H528.029ZM534.987 21.2477H533.493V14.0504H534.987V21.2477ZM541.232 16.2965C541.118 15.805 540.84 15.4615 540.397 15.2662C540.15 15.1588 539.875 15.1051 539.572 15.1051C538.993 15.1051 538.516 15.3248 538.142 15.7643C537.771 16.2005 537.585 16.858 537.585 17.7369C537.585 18.6224 537.787 19.249 538.19 19.6168C538.594 19.9847 539.053 20.1686 539.567 20.1686C540.072 20.1686 540.485 20.0237 540.808 19.734C541.13 19.441 541.328 19.0586 541.403 18.5865H539.738V17.3854H542.736V21.2477H541.74L541.589 20.3492C541.299 20.691 541.039 20.9319 540.808 21.0719C540.41 21.316 539.922 21.4381 539.343 21.4381C538.389 21.4381 537.608 21.1077 536.999 20.4469C536.364 19.7828 536.047 18.8746 536.047 17.7223C536.047 16.5569 536.368 15.6227 537.009 14.9196C537.65 14.2164 538.498 13.8649 539.553 13.8649C540.467 13.8649 541.201 14.0976 541.755 14.5631C542.312 15.0253 542.631 15.6031 542.712 16.2965H541.232ZM544.152 14.0504H545.729L548.596 19.0748V14.0504H549.997V21.2477H548.493L545.554 16.1354V21.2477H544.152V14.0504ZM554.187 14.0504H555.715V18.4742C555.715 18.969 555.773 19.3304 555.891 19.5582C556.073 19.9619 556.47 20.1637 557.082 20.1637C557.691 20.1637 558.086 19.9619 558.269 19.5582C558.386 19.3304 558.444 18.969 558.444 18.4742V14.0504H559.973V18.4742C559.973 19.2392 559.854 19.8349 559.616 20.2614C559.174 21.0426 558.329 21.4332 557.082 21.4332C555.835 21.4332 554.989 21.0426 554.543 20.2614C554.305 19.8349 554.187 19.2392 554.187 18.4742V14.0504ZM565.466 16.3405C565.466 15.9661 565.367 15.6992 565.168 15.5397C564.973 15.3802 564.698 15.3004 564.343 15.3004H562.941V17.4196H564.343C564.698 17.4196 564.973 17.3333 565.168 17.1608C565.367 16.9882 565.466 16.7148 565.466 16.3405ZM566.955 16.3307C566.955 17.1803 566.74 17.7809 566.311 18.1324C565.881 18.484 565.267 18.6598 564.47 18.6598H562.941V21.2477H561.447V14.0504H564.582C565.305 14.0504 565.881 14.236 566.311 14.6071C566.74 14.9781 566.955 15.5527 566.955 16.3307Z" fill="white"/>
</g>
<g clip-path="url(#clip8_92_157)">
<rect x="539.248" y="29.7477" width="0.00470312" height="0.00470312" fill="white"/>
</g>
</g>
<g clip-path="url(#clip9_92_157)">
<g clip-path="url(#clip10_92_157)">
<g clip-path="url(#clip11_92_157)">
<path d="M427.647 13.635C427.228 13.1836 426.645 12.935 426 12.935C425.352 12.935 424.766 13.1821 424.35 13.6307C423.929 14.0842 423.724 14.7006 423.773 15.3662C423.868 16.6793 424.867 17.7475 426 17.7475C427.133 17.7475 428.13 16.6795 428.227 15.3666C428.276 14.707 428.07 14.0919 427.647 13.635Z" fill="white"/>
<path d="M429.781 22.5595H422.219C422.12 22.5608 422.022 22.54 421.932 22.4986C421.842 22.4573 421.762 22.3964 421.699 22.3204C421.559 22.1535 421.503 21.9255 421.545 21.695C421.726 20.6891 422.292 19.8441 423.181 19.2509C423.972 18.7243 424.973 18.4345 426 18.4345C427.028 18.4345 428.029 18.7245 428.819 19.2509C429.708 19.8439 430.274 20.6889 430.456 21.6948C430.497 21.9253 430.441 22.1532 430.301 22.3202C430.238 22.3962 430.158 22.4571 430.068 22.4985C429.978 22.5399 429.88 22.5608 429.781 22.5595Z" fill="white"/>
</g>
<path d="M440.385 16.3405C440.385 15.9661 440.285 15.6992 440.087 15.5397C439.892 15.3802 439.617 15.3004 439.262 15.3004H437.86V17.4196H439.262C439.617 17.4196 439.892 17.3333 440.087 17.1608C440.285 16.9882 440.385 16.7148 440.385 16.3405ZM441.874 16.3307C441.874 17.1803 441.659 17.7809 441.229 18.1324C440.8 18.484 440.186 18.6598 439.389 18.6598H437.86V21.2477H436.366V14.0504H439.501C440.224 14.0504 440.8 14.236 441.229 14.6071C441.659 14.9781 441.874 15.5527 441.874 16.3307ZM444.506 15.3004V17.234H446.21C446.549 17.234 446.802 17.1949 446.972 17.1168C447.271 16.9801 447.421 16.7099 447.421 16.3063C447.421 15.8701 447.276 15.5771 446.986 15.4274C446.824 15.3427 446.579 15.3004 446.254 15.3004H444.506ZM446.566 14.0504C447.071 14.0602 447.458 14.122 447.729 14.236C448.002 14.3499 448.233 14.5175 448.422 14.7389C448.578 14.9212 448.702 15.123 448.793 15.3444C448.884 15.5657 448.93 15.818 448.93 16.1012C448.93 16.443 448.843 16.7799 448.671 17.1119C448.498 17.4407 448.214 17.6735 447.816 17.8102C448.148 17.9436 448.383 18.1341 448.52 18.3815C448.66 18.6256 448.729 19 448.729 19.5045V19.9879C448.729 20.3167 448.743 20.5397 448.769 20.6569C448.808 20.8424 448.899 20.9791 449.042 21.067V21.2477H447.387C447.341 21.0882 447.309 20.9596 447.289 20.8619C447.25 20.6601 447.229 20.4534 447.226 20.2418L447.216 19.5729C447.209 19.1139 447.125 18.8079 446.962 18.6549C446.802 18.5019 446.501 18.4254 446.059 18.4254H444.506V21.2477H443.036V14.0504H446.566ZM453.412 20.1735C454.008 20.1735 454.48 19.9537 454.828 19.5143C455.18 19.0748 455.355 18.4498 455.355 17.6393C455.355 16.832 455.18 16.2086 454.828 15.7692C454.48 15.3265 454.008 15.1051 453.412 15.1051C452.816 15.1051 452.341 15.3248 451.986 15.7643C451.632 16.2037 451.454 16.8287 451.454 17.6393C451.454 18.4498 451.632 19.0748 451.986 19.5143C452.341 19.9537 452.816 20.1735 453.412 20.1735ZM456.859 17.6393C456.859 18.9316 456.496 19.9212 455.771 20.608C455.227 21.1679 454.441 21.4479 453.412 21.4479C452.383 21.4479 451.597 21.1679 451.054 20.608C450.325 19.9212 449.96 18.9316 449.96 17.6393C449.96 16.3209 450.325 15.3313 451.054 14.6705C451.597 14.1106 452.383 13.8307 453.412 13.8307C454.441 13.8307 455.227 14.1106 455.771 14.6705C456.496 15.3313 456.859 16.3209 456.859 17.6393ZM458.012 14.0602H463.114V15.3248H459.506V16.9801H462.665V18.2301H459.506V21.2477H458.012V14.0602ZM465.502 21.2477H464.008V14.0504H465.502V21.2477ZM466.908 14.0504H468.412V19.9537H471.977V21.2477H466.908V14.0504ZM478.344 15.3248H474.535V16.8531H478.031V18.1031H474.535V19.9537H478.52V21.2477H473.065V14.0504H478.344V15.3248Z" fill="white"/>
</g>
<g clip-path="url(#clip12_92_157)">
<rect x="449.748" y="29.7477" width="0.00470312" height="0.00470312" fill="white"/>
</g>
</g>
<g clip-path="url(#clip13_92_157)">
<g clip-path="url(#clip14_92_157)">
<g clip-path="url(#clip15_92_157)">
<path d="M318.972 15.1755C318.985 15.1679 318.996 15.1571 319.004 15.144C319.011 15.131 319.015 15.1163 319.015 15.1012C319.015 15.0862 319.011 15.0715 319.004 15.0584C318.996 15.0454 318.985 15.0346 318.972 15.027L315.691 13.1205C315.481 12.9988 315.243 12.9347 315 12.9347C314.757 12.9347 314.519 12.9988 314.309 13.1205L311.028 15.027C311.015 15.0346 311.004 15.0454 310.997 15.0584C310.989 15.0715 310.985 15.0862 310.985 15.1012C310.985 15.1163 310.989 15.131 310.997 15.144C311.004 15.1571 311.015 15.1679 311.028 15.1755L314.957 17.4868C314.97 17.4945 314.985 17.4987 315.001 17.4987C315.016 17.4987 315.031 17.4945 315.044 17.4868L318.972 15.1755Z" fill="white"/>
<path d="M310.66 15.7598C310.647 15.7522 310.632 15.7483 310.617 15.7483C310.602 15.7483 310.587 15.7523 310.574 15.7599C310.561 15.7676 310.55 15.7785 310.543 15.7916C310.535 15.8048 310.531 15.8197 310.531 15.8348V19.5707C310.532 19.7507 310.579 19.9275 310.669 20.0836C310.759 20.2396 310.888 20.3693 311.043 20.4599L314.527 22.5489C314.54 22.5564 314.555 22.5604 314.57 22.5604C314.585 22.5604 314.6 22.5564 314.613 22.5489C314.626 22.5414 314.637 22.5305 314.645 22.5175C314.652 22.5044 314.656 22.4896 314.656 22.4745V18.1401C314.656 18.125 314.652 18.1102 314.645 18.0971C314.637 18.0841 314.626 18.0733 314.613 18.0657L310.66 15.7598Z" fill="white"/>
<path d="M315.344 18.1551V22.4734C315.344 22.4885 315.348 22.5033 315.355 22.5164C315.363 22.5294 315.374 22.5403 315.387 22.5478C315.4 22.5553 315.415 22.5593 315.43 22.5593C315.445 22.5593 315.46 22.5553 315.473 22.5478L318.956 20.4589C319.112 20.3684 319.241 20.2388 319.331 20.083C319.421 19.9272 319.468 19.7506 319.469 19.5707V15.8348C319.469 15.8197 319.465 15.8049 319.457 15.7919C319.45 15.7789 319.439 15.7681 319.426 15.7606C319.413 15.7531 319.398 15.7491 319.383 15.7491C319.368 15.7492 319.353 15.7531 319.34 15.7607L315.387 18.081C315.374 18.0885 315.363 18.0993 315.355 18.1123C315.348 18.1253 315.344 18.1401 315.344 18.1551Z" fill="white"/>
</g>
<path d="M326.952 15.3004V19.9977H328.339C329.049 19.9977 329.543 19.6477 329.823 18.9479C329.976 18.5638 330.053 18.1064 330.053 17.5758C330.053 16.8434 329.937 16.2819 329.706 15.8912C329.478 15.4974 329.022 15.3004 328.339 15.3004H326.952ZM328.593 14.0504C329.039 14.0569 329.41 14.109 329.706 14.2067C330.211 14.3727 330.619 14.677 330.932 15.1198C331.182 15.4778 331.353 15.8652 331.444 16.2819C331.535 16.6985 331.581 17.0957 331.581 17.4733C331.581 18.4303 331.389 19.2408 331.005 19.9049C330.484 20.8001 329.68 21.2477 328.593 21.2477H325.492V14.0504H328.593ZM334.687 18.528H336.513L335.614 15.6959L334.687 18.528ZM334.779 14.0504H336.479L339.027 21.2477H337.396L336.933 19.7682H334.281L333.783 21.2477H332.211L334.779 14.0504ZM341.034 19.026C341.08 19.3548 341.169 19.6005 341.303 19.7633C341.547 20.0595 341.965 20.2076 342.558 20.2076C342.912 20.2076 343.201 20.1686 343.422 20.0905C343.842 19.9407 344.052 19.6624 344.052 19.2555C344.052 19.0179 343.948 18.8339 343.739 18.7037C343.531 18.5768 343.204 18.4645 342.758 18.3668L341.996 18.1959C341.247 18.0267 340.73 17.8427 340.443 17.6442C339.958 17.3121 339.716 16.7929 339.716 16.0865C339.716 15.442 339.95 14.9065 340.419 14.4801C340.888 14.0537 341.576 13.8405 342.484 13.8405C343.243 13.8405 343.889 14.0423 344.423 14.4459C344.96 14.8463 345.242 15.429 345.268 16.194H343.822C343.796 15.761 343.607 15.4534 343.256 15.2711C343.021 15.1507 342.73 15.0905 342.382 15.0905C341.994 15.0905 341.685 15.1686 341.454 15.3248C341.223 15.4811 341.107 15.6992 341.107 15.9791C341.107 16.2363 341.221 16.4283 341.449 16.5553C341.596 16.6399 341.908 16.7392 342.387 16.8531L343.627 17.151C344.171 17.2812 344.581 17.4554 344.857 17.6735C345.287 18.012 345.502 18.5019 345.502 19.1432C345.502 19.8007 345.25 20.3476 344.745 20.7838C344.244 21.2168 343.534 21.4332 342.616 21.4332C341.679 21.4332 340.941 21.22 340.404 20.7936C339.867 20.3639 339.599 19.7747 339.599 19.026H341.034ZM346.605 21.2477V14.0504H348.095V16.7946H350.907V14.0504H352.401V21.2477H350.907V18.0348H348.095V21.2477H346.605ZM355.302 15.3004V16.8873H357.069C357.385 16.8873 357.641 16.8287 357.836 16.7115C358.035 16.5911 358.134 16.3795 358.134 16.0768C358.134 15.7415 358.004 15.5201 357.743 15.4127C357.519 15.3378 357.232 15.3004 356.884 15.3004H355.302ZM355.302 18.0787V19.9977H357.069C357.385 19.9977 357.631 19.9554 357.807 19.8707C358.126 19.7145 358.285 19.415 358.285 18.9723C358.285 18.5979 358.131 18.3408 357.821 18.2008C357.649 18.1227 357.406 18.082 357.094 18.0787H355.302ZM357.362 14.0504C358.244 14.0634 358.869 14.319 359.237 14.817C359.459 15.123 359.569 15.4892 359.569 15.9156C359.569 16.3551 359.459 16.7083 359.237 16.9752C359.114 17.125 358.931 17.2617 358.69 17.3854C359.058 17.5188 359.335 17.7304 359.521 18.0201C359.709 18.3099 359.804 18.6614 359.804 19.0748C359.804 19.5013 359.696 19.8837 359.481 20.2223C359.345 20.4469 359.174 20.6357 358.969 20.7887C358.738 20.9645 358.464 21.0849 358.148 21.15C357.836 21.2151 357.496 21.2477 357.128 21.2477H353.866V14.0504H357.362ZM364.252 20.1735C364.848 20.1735 365.32 19.9537 365.668 19.5143C366.02 19.0748 366.195 18.4498 366.195 17.6393C366.195 16.832 366.02 16.2086 365.668 15.7692C365.32 15.3265 364.848 15.1051 364.252 15.1051C363.656 15.1051 363.181 15.3248 362.826 15.7643C362.471 16.2037 362.294 16.8287 362.294 17.6393C362.294 18.4498 362.471 19.0748 362.826 19.5143C363.181 19.9537 363.656 20.1735 364.252 20.1735ZM367.699 17.6393C367.699 18.9316 367.336 19.9212 366.61 20.608C366.067 21.1679 365.281 21.4479 364.252 21.4479C363.223 21.4479 362.437 21.1679 361.894 20.608C361.164 19.9212 360.8 18.9316 360.8 17.6393C360.8 16.3209 361.164 15.3313 361.894 14.6705C362.437 14.1106 363.223 13.8307 364.252 13.8307C365.281 13.8307 366.067 14.1106 366.61 14.6705C367.336 15.3313 367.699 16.3209 367.699 17.6393ZM370.819 18.528H372.646L371.747 15.6959L370.819 18.528ZM370.912 14.0504H372.611L375.16 21.2477H373.529L373.065 19.7682H370.414L369.916 21.2477H368.344L370.912 14.0504ZM377.582 15.3004V17.234H379.286C379.625 17.234 379.879 17.1949 380.048 17.1168C380.347 16.9801 380.497 16.7099 380.497 16.3063C380.497 15.8701 380.352 15.5771 380.062 15.4274C379.9 15.3427 379.656 15.3004 379.33 15.3004H377.582ZM379.643 14.0504C380.147 14.0602 380.535 14.122 380.805 14.236C381.078 14.3499 381.309 14.5175 381.498 14.7389C381.654 14.9212 381.778 15.123 381.869 15.3444C381.96 15.5657 382.006 15.818 382.006 16.1012C382.006 16.443 381.92 16.7799 381.747 17.1119C381.575 17.4407 381.29 17.6735 380.893 17.8102C381.225 17.9436 381.459 18.1341 381.596 18.3815C381.736 18.6256 381.806 19 381.806 19.5045V19.9879C381.806 20.3167 381.819 20.5397 381.845 20.6569C381.884 20.8424 381.975 20.9791 382.118 21.067V21.2477H380.463C380.417 21.0882 380.385 20.9596 380.365 20.8619C380.326 20.6601 380.305 20.4534 380.302 20.2418L380.292 19.5729C380.285 19.1139 380.201 18.8079 380.038 18.6549C379.879 18.5019 379.577 18.4254 379.135 18.4254H377.582V21.2477H376.112V14.0504H379.643ZM384.765 15.3004V19.9977H386.151C386.861 19.9977 387.356 19.6477 387.636 18.9479C387.789 18.5638 387.865 18.1064 387.865 17.5758C387.865 16.8434 387.75 16.2819 387.519 15.8912C387.291 15.4974 386.835 15.3004 386.151 15.3004H384.765ZM386.405 14.0504C386.851 14.0569 387.222 14.109 387.519 14.2067C388.023 14.3727 388.432 14.677 388.744 15.1198C388.995 15.4778 389.166 15.8652 389.257 16.2819C389.348 16.6985 389.394 17.0957 389.394 17.4733C389.394 18.4303 389.201 19.2408 388.817 19.9049C388.297 20.8001 387.493 21.2477 386.405 21.2477H383.305V14.0504H386.405Z" fill="white"/>
</g>
<g clip-path="url(#clip16_92_157)">
<rect x="349.748" y="29.7477" width="0.00470312" height="0.00470312" fill="white"/>
</g>
</g>
<path d="M40.7402 16.6299C40.7402 16.1059 40.6012 15.7322 40.3232 15.5089C40.0498 15.2855 39.6647 15.1739 39.168 15.1739H37.2061V18.1407H39.168C39.6647 18.1407 40.0498 18.0199 40.3232 17.7784C40.6012 17.5368 40.7402 17.154 40.7402 16.6299ZM42.8252 16.6163C42.8252 17.8057 42.5244 18.6465 41.9229 19.1387C41.3213 19.6309 40.4622 19.877 39.3457 19.877H37.2061V23.5001H35.1143V13.4239H39.5029C40.5146 13.4239 41.3213 13.6837 41.9229 14.2032C42.5244 14.7227 42.8252 15.5271 42.8252 16.6163ZM44.4043 13.4239H46.5439V19.6172C46.5439 20.31 46.626 20.8158 46.79 21.1348C47.0452 21.6999 47.6012 21.9825 48.458 21.9825C49.3102 21.9825 49.8639 21.6999 50.1191 21.1348C50.2832 20.8158 50.3652 20.31 50.3652 19.6172V13.4239H52.5049V19.6172C52.5049 20.6882 52.3385 21.5222 52.0059 22.1192C51.3861 23.213 50.2035 23.7598 48.458 23.7598C46.7126 23.7598 45.5277 23.213 44.9033 22.1192C44.5706 21.5222 44.4043 20.6882 44.4043 19.6172V13.4239ZM56.627 15.1739V17.8809H59.0127C59.4867 17.8809 59.8421 17.8262 60.0791 17.7169C60.4984 17.5255 60.708 17.1472 60.708 16.5821C60.708 15.9714 60.5052 15.5613 60.0996 15.3516C59.8717 15.2331 59.5299 15.1739 59.0742 15.1739H56.627ZM59.5117 13.4239C60.2181 13.4376 60.7604 13.5241 61.1387 13.6837C61.5215 13.8432 61.8451 14.0779 62.1094 14.3878C62.3281 14.643 62.5013 14.9255 62.6289 15.2354C62.7565 15.5453 62.8203 15.8985 62.8203 16.295C62.8203 16.7735 62.6995 17.2452 62.458 17.71C62.2165 18.1703 61.8177 18.4962 61.2617 18.6876C61.7266 18.8744 62.0547 19.141 62.2461 19.4874C62.4421 19.8292 62.54 20.3533 62.54 21.0596V21.7364C62.54 22.1967 62.5583 22.5089 62.5947 22.6729C62.6494 22.9327 62.777 23.1241 62.9775 23.2471V23.5001H60.6602C60.5964 23.2768 60.5508 23.0967 60.5234 22.96C60.4688 22.6775 60.4391 22.3881 60.4346 22.0919L60.4209 21.1553C60.4118 20.5128 60.2933 20.0844 60.0654 19.8702C59.8421 19.656 59.4206 19.5489 58.8008 19.5489H56.627V23.5001H54.5693V13.4239H59.5117ZM66.5664 23.5001H64.4746V13.4239H66.5664V23.5001ZM75.8564 13.4239V15.2081H72.8418V23.5001H70.7227V15.2081H67.6943V13.4239H75.8564ZM82.8428 13.4239H85.2285L81.8584 19.713V23.5001H79.7529V19.713L76.2666 13.4239H78.748L80.8398 17.8126L82.8428 13.4239ZM90.082 13.4239H92.2217V19.6172C92.2217 20.31 92.3037 20.8158 92.4678 21.1348C92.723 21.6999 93.279 21.9825 94.1357 21.9825C94.988 21.9825 95.5417 21.6999 95.7969 21.1348C95.9609 20.8158 96.043 20.31 96.043 19.6172V13.4239H98.1826V19.6172C98.1826 20.6882 98.0163 21.5222 97.6836 22.1192C97.0638 23.213 95.8812 23.7598 94.1357 23.7598C92.3903 23.7598 91.2054 23.213 90.5811 22.1192C90.2484 21.5222 90.082 20.6882 90.082 19.6172V13.4239ZM102.127 23.5001H100.035V13.4239H102.127V23.5001ZM110.036 15.1739V21.7501H111.978C112.971 21.7501 113.664 21.2602 114.056 20.2803C114.27 19.7426 114.377 19.1023 114.377 18.3594C114.377 17.334 114.215 16.5479 113.892 16.001C113.573 15.4496 112.935 15.1739 111.978 15.1739H110.036ZM112.333 13.4239C112.957 13.433 113.477 13.5059 113.892 13.6426C114.598 13.8751 115.17 14.3012 115.607 14.921C115.958 15.4223 116.198 15.9646 116.325 16.5479C116.453 17.1312 116.517 17.6872 116.517 18.2159C116.517 19.5557 116.248 20.6905 115.71 21.6202C114.981 22.8734 113.855 23.5001 112.333 23.5001H107.992V13.4239H112.333ZM120.864 19.6924H123.421L122.163 15.7276L120.864 19.6924ZM120.994 13.4239H123.373L126.941 23.5001H124.658L124.009 21.4288H120.297L119.6 23.5001H117.398L120.994 13.4239ZM129.751 20.3897C129.815 20.85 129.94 21.1941 130.127 21.4219C130.469 21.8366 131.054 22.044 131.884 22.044C132.381 22.044 132.784 21.9893 133.094 21.8799C133.682 21.6703 133.976 21.2807 133.976 20.711C133.976 20.3783 133.83 20.1208 133.538 19.9385C133.246 19.7608 132.788 19.6036 132.164 19.4669L131.098 19.2276C130.049 18.9906 129.325 18.7331 128.924 18.4551C128.245 17.9903 127.905 17.2634 127.905 16.2745C127.905 15.3721 128.233 14.6225 128.89 14.0255C129.546 13.4284 130.51 13.1299 131.781 13.1299C132.843 13.1299 133.748 13.4125 134.495 13.9776C135.247 14.5381 135.641 15.3539 135.678 16.4249H133.654C133.618 15.8187 133.354 15.3881 132.861 15.1329C132.533 14.9643 132.125 14.8799 131.638 14.8799C131.095 14.8799 130.662 14.9893 130.339 15.2081C130.015 15.4268 129.854 15.7322 129.854 16.1241C129.854 16.4841 130.013 16.753 130.332 16.9307C130.537 17.0492 130.975 17.1882 131.645 17.3477L133.381 17.7647C134.142 17.947 134.716 18.1908 135.104 18.4962C135.705 18.9701 136.006 19.656 136.006 20.5538C136.006 21.4743 135.653 22.24 134.946 22.8506C134.244 23.4568 133.251 23.7598 131.966 23.7598C130.653 23.7598 129.621 23.4613 128.869 22.8643C128.117 22.2628 127.741 21.4379 127.741 20.3897H129.751ZM137.551 23.5001V13.4239H139.636V17.2657H143.573V13.4239H145.665V23.5001H143.573V19.002H139.636V23.5001H137.551ZM149.726 15.1739V17.3956H152.2C152.642 17.3956 153 17.3135 153.273 17.1495C153.551 16.9809 153.69 16.6846 153.69 16.2608C153.69 15.7914 153.508 15.4815 153.144 15.3311C152.829 15.2263 152.428 15.1739 151.94 15.1739H149.726ZM149.726 19.0635V21.7501H152.2C152.642 21.7501 152.986 21.6908 153.232 21.5723C153.679 21.3536 153.902 20.9343 153.902 20.3145C153.902 19.7904 153.686 19.4304 153.253 19.2344C153.011 19.1251 152.672 19.0681 152.234 19.0635H149.726ZM152.61 13.4239C153.845 13.4421 154.72 13.7999 155.235 14.4971C155.545 14.9255 155.7 15.4382 155.7 16.0352C155.7 16.6505 155.545 17.1449 155.235 17.5186C155.062 17.7283 154.807 17.9197 154.47 18.0928C154.985 18.2797 155.372 18.5759 155.632 18.9815C155.896 19.3871 156.028 19.8793 156.028 20.4581C156.028 21.0551 155.878 21.5906 155.577 22.0645C155.386 22.379 155.146 22.6433 154.859 22.8575C154.536 23.1036 154.153 23.2722 153.711 23.3633C153.273 23.4545 152.797 23.5001 152.282 23.5001H147.716V13.4239H152.61ZM162.256 21.9962C163.09 21.9962 163.751 21.6885 164.238 21.0733C164.73 20.4581 164.977 19.5831 164.977 18.4483C164.977 17.3181 164.73 16.4454 164.238 15.8301C163.751 15.2103 163.09 14.9005 162.256 14.9005C161.422 14.9005 160.757 15.2081 160.26 15.8233C159.763 16.4385 159.515 17.3135 159.515 18.4483C159.515 19.5831 159.763 20.4581 160.26 21.0733C160.757 21.6885 161.422 21.9962 162.256 21.9962ZM167.082 18.4483C167.082 20.2575 166.574 21.643 165.558 22.6046C164.797 23.3884 163.696 23.7803 162.256 23.7803C160.816 23.7803 159.715 23.3884 158.954 22.6046C157.933 21.643 157.423 20.2575 157.423 18.4483C157.423 16.6026 157.933 15.2172 158.954 14.2921C159.715 13.5082 160.816 13.1163 162.256 13.1163C163.696 13.1163 164.797 13.5082 165.558 14.2921C166.574 15.2172 167.082 16.6026 167.082 18.4483ZM171.45 19.6924H174.007L172.749 15.7276L171.45 19.6924ZM171.58 13.4239H173.959L177.527 23.5001H175.244L174.595 21.4288H170.883L170.186 23.5001H167.984L171.58 13.4239ZM180.918 15.1739V17.8809H183.304C183.778 17.8809 184.133 17.8262 184.37 17.7169C184.789 17.5255 184.999 17.1472 184.999 16.5821C184.999 15.9714 184.796 15.5613 184.391 15.3516C184.163 15.2331 183.821 15.1739 183.365 15.1739H180.918ZM183.803 13.4239C184.509 13.4376 185.051 13.5241 185.43 13.6837C185.812 13.8432 186.136 14.0779 186.4 14.3878C186.619 14.643 186.792 14.9255 186.92 15.2354C187.048 15.5453 187.111 15.8985 187.111 16.295C187.111 16.7735 186.991 17.2452 186.749 17.71C186.507 18.1703 186.109 18.4962 185.553 18.6876C186.018 18.8744 186.346 19.141 186.537 19.4874C186.733 19.8292 186.831 20.3533 186.831 21.0596V21.7364C186.831 22.1967 186.849 22.5089 186.886 22.6729C186.94 22.9327 187.068 23.1241 187.269 23.2471V23.5001H184.951C184.887 23.2768 184.842 23.0967 184.814 22.96C184.76 22.6775 184.73 22.3881 184.726 22.0919L184.712 21.1553C184.703 20.5128 184.584 20.0844 184.356 19.8702C184.133 19.656 183.712 19.5489 183.092 19.5489H180.918V23.5001H178.86V13.4239H183.803ZM190.974 15.1739V21.7501H192.915C193.909 21.7501 194.601 21.2602 194.993 20.2803C195.207 19.7426 195.314 19.1023 195.314 18.3594C195.314 17.334 195.153 16.5479 194.829 16.001C194.51 15.4496 193.872 15.1739 192.915 15.1739H190.974ZM193.271 13.4239C193.895 13.433 194.414 13.5059 194.829 13.6426C195.535 13.8751 196.107 14.3012 196.545 14.921C196.896 15.4223 197.135 15.9646 197.263 16.5479C197.39 17.1312 197.454 17.6872 197.454 18.2159C197.454 19.5557 197.185 20.6905 196.647 21.6202C195.918 22.8734 194.793 23.5001 193.271 23.5001H188.93V13.4239H193.271Z" fill="white"/>
<path d="M20.8795 6.5H1.1219C0.502293 6.5 0 7.00229 0 7.6219V17.0297C0 17.6493 0.502293 18.1516 1.1219 18.1516H5.17558V27.3795C5.17522 27.6769 5.29311 27.9623 5.50329 28.1727C5.71347 28.3831 5.99869 28.5014 6.29611 28.5014H15.7039C16.3235 28.5014 16.8258 27.9991 16.8258 27.3795V18.1557H20.8795C21.1769 18.1557 21.4621 18.0375 21.6723 17.827C21.8825 17.6166 22.0004 17.3312 22 17.0338V7.6219C22.0004 7.32448 21.8825 7.03912 21.6723 6.82868C21.4621 6.61824 21.1769 6.5 20.8795 6.5ZM1.30042 7.80179H10.3498V16.8512H1.30042V7.80179ZM15.5254 27.201H6.476V18.1557H15.5254V27.201ZM20.6996 16.8512H11.6502V7.80179H20.6996V16.8512Z" fill="white"/>
<path d="M7.44831 13.8245C7.70457 14.065 8.10548 14.0587 8.35399 13.8102C8.60249 13.5617 8.60885 13.1608 8.36835 12.9045L6.2907 10.8269C6.03594 10.5745 5.62542 10.5745 5.37066 10.8269L3.28752 12.9045C3.11436 13.067 3.04345 13.3109 3.10248 13.5409C3.16151 13.7709 3.34112 13.9506 3.57114 14.0096C3.80115 14.0686 4.04506 13.9977 4.20756 13.8245L5.82519 12.2069L7.44831 13.8245Z" fill="white"/>
<path d="M14.5573 13.8245L16.1749 12.2069L17.7925 13.8245C18.0488 14.065 18.4497 14.0587 18.6982 13.8102C18.9467 13.5617 18.9531 13.1608 18.7126 12.9045L16.6349 10.8269C16.3801 10.5745 15.9696 10.5745 15.7149 10.8269L13.6372 12.9045C13.3967 13.1608 13.4031 13.5617 13.6516 13.8102C13.9001 14.0587 14.301 14.065 14.5573 13.8245Z" fill="white"/>
<path d="M9.38176 21.1767C9.12514 20.9366 8.72423 20.9435 8.47609 21.1924C8.22795 21.4413 8.22219 21.8422 8.46309 22.0981L10.5407 24.1744C10.6626 24.2966 10.8281 24.3654 11.0008 24.3654C11.1734 24.3654 11.3389 24.2966 11.4608 24.1744L13.5384 22.0981C13.703 21.9338 13.7674 21.6941 13.7074 21.4694C13.6474 21.2446 13.472 21.069 13.2474 21.0087C13.0228 20.9483 12.783 21.0123 12.6184 21.1767L11.0008 22.7957L9.38176 21.1767Z" fill="white"/>
<defs>
<clipPath id="clip0_92_157">
<rect width="89.5" height="24.0047" fill="white" transform="translate(819.75 5.49768)"/>
</clipPath>
<clipPath id="clip1_92_157">
<rect width="89.5" height="15" fill="white" transform="translate(819.75 9.99768)"/>
</clipPath>
<clipPath id="clip2_92_157">
<rect width="24.0047" height="0.00469579" fill="white" transform="translate(852.498 29.4977)"/>
</clipPath>
<clipPath id="clip3_92_157">
<rect width="52.5" height="24.0047" fill="white" transform="translate(602.5 5.74768)"/>
</clipPath>
<clipPath id="clip4_92_157">
<rect width="52.5" height="15" fill="white" transform="translate(602.5 10.2477)"/>
</clipPath>
<clipPath id="clip5_92_157">
<rect width="24.0047" height="0.00469579" fill="white" transform="translate(616.748 29.7477)"/>
</clipPath>
<clipPath id="clip6_92_157">
<rect width="56.5" height="24.0047" fill="white" transform="translate(511 5.74768)"/>
</clipPath>
<clipPath id="clip7_92_157">
<rect width="56.5" height="15" fill="white" transform="translate(511 10.2477)"/>
</clipPath>
<clipPath id="clip8_92_157">
<rect width="24.0047" height="0.00469579" fill="white" transform="translate(527.248 29.7477)"/>
</clipPath>
<clipPath id="clip9_92_157">
<rect width="58.5" height="24.0047" fill="white" transform="translate(420.5 5.74768)"/>
</clipPath>
<clipPath id="clip10_92_157">
<rect width="58.5" height="15" fill="white" transform="translate(420.5 10.2477)"/>
</clipPath>
<clipPath id="clip11_92_157">
<rect width="11" height="11" fill="white" transform="translate(420.5 12.2477)"/>
</clipPath>
<clipPath id="clip12_92_157">
<rect width="24.0047" height="0.00469579" fill="white" transform="translate(437.748 29.7477)"/>
</clipPath>
<clipPath id="clip13_92_157">
<rect width="80.5" height="24.0047" fill="white" transform="translate(309.5 5.74768)"/>
</clipPath>
<clipPath id="clip14_92_157">
<rect width="80.5" height="15" fill="white" transform="translate(309.5 10.2477)"/>
</clipPath>
<clipPath id="clip15_92_157">
<rect width="11" height="11" fill="white" transform="translate(309.5 12.2477)"/>
</clipPath>
<clipPath id="clip16_92_157">
<rect width="24.0047" height="0.00469579" fill="white" transform="translate(337.748 29.7477)"/>
</clipPath>
</defs>
</svg>
