<svg width="146" height="46" viewBox="0 0 146 46" fill="none" xmlns="http://www.w3.org/2000/svg">
<g filter="url(#filter0_d_67_312)">
<rect x="5.5" y="3.5" width="134.5" height="35" rx="12" fill="white"/>
<g clip-path="url(#clip0_67_312)">
<g clip-path="url(#clip1_67_312)">
<g clip-path="url(#clip2_67_312)">
<path d="M39.2812 19.1488V23.3795L43.4062 25.809V21.598L39.2812 19.1488Z" fill="#2D3748"/>
<path d="M44.0938 25.809L48.2187 23.3795V19.1488L44.0938 21.598V25.809Z" fill="#2D3748"/>
<path d="M47.875 18.5905L43.75 16.1842L39.625 18.5905L43.75 20.9967L47.875 18.5905Z" fill="#2D3748"/>
</g>
<path d="M57.3252 23.423C57.9209 23.423 58.3929 23.2032 58.7412 22.7638C59.0928 22.3243 59.2686 21.6993 59.2686 20.8888C59.2686 20.0815 59.0928 19.4581 58.7412 19.0187C58.3929 18.576 57.9209 18.3546 57.3252 18.3546C56.7295 18.3546 56.2542 18.5743 55.8994 19.0138C55.5446 19.4532 55.3672 20.0782 55.3672 20.8888C55.3672 21.6993 55.5446 22.3243 55.8994 22.7638C56.2542 23.2032 56.7295 23.423 57.3252 23.423ZM60.7725 20.8888C60.7725 22.1811 60.4095 23.1707 59.6836 23.8575C59.14 24.4174 58.3538 24.6974 57.3252 24.6974C56.2966 24.6974 55.5104 24.4174 54.9668 23.8575C54.2376 23.1707 53.873 22.1811 53.873 20.8888C53.873 19.5704 54.2376 18.5809 54.9668 17.92C55.5104 17.3601 56.2966 17.0802 57.3252 17.0802C58.3538 17.0802 59.14 17.3601 59.6836 17.92C60.4095 18.5809 60.7725 19.5704 60.7725 20.8888ZM66.1387 17.2999H67.7012L65.2451 24.4972H63.8242L61.3926 17.2999H62.999L64.5615 22.7638L66.1387 17.2999ZM73.917 18.5743H70.1084V20.1027H73.6045V21.3527H70.1084V23.2032H74.0928V24.4972H68.6387V17.2999H73.917V18.5743ZM76.7686 18.5499V20.4835H78.4727C78.8112 20.4835 79.0651 20.4445 79.2344 20.3663C79.5339 20.2296 79.6836 19.9594 79.6836 19.5558C79.6836 19.1196 79.5387 18.8266 79.249 18.6769C79.0863 18.5922 78.8421 18.5499 78.5166 18.5499H76.7686ZM78.8291 17.2999C79.3337 17.3097 79.721 17.3715 79.9912 17.4855C80.2646 17.5994 80.4958 17.767 80.6846 17.9884C80.8408 18.1707 80.9645 18.3725 81.0557 18.5939C81.1468 18.8152 81.1924 19.0675 81.1924 19.3507C81.1924 19.6925 81.1061 20.0294 80.9336 20.3615C80.7611 20.6902 80.4762 20.923 80.0791 21.0597C80.4111 21.1932 80.6455 21.3836 80.7822 21.631C80.9222 21.8751 80.9922 22.2495 80.9922 22.754V23.2374C80.9922 23.5662 81.0052 23.7892 81.0312 23.9064C81.0703 24.0919 81.1615 24.2286 81.3047 24.3165V24.4972H79.6494C79.6038 24.3377 79.5713 24.2091 79.5518 24.1115C79.5127 23.9096 79.4915 23.7029 79.4883 23.4913L79.4785 22.8224C79.472 22.3634 79.3874 22.0574 79.2246 21.9044C79.0651 21.7514 78.764 21.6749 78.3213 21.6749H76.7686V24.4972H75.2988V17.2999H78.8291ZM86.5293 17.2999H88.0918L85.6357 24.4972H84.2148L81.7832 17.2999H83.3896L84.9521 22.7638L86.5293 17.2999ZM90.3623 24.4972H88.8682V17.2999H90.3623V24.4972ZM97.0908 18.5743H93.2822V20.1027H96.7783V21.3527H93.2822V23.2032H97.2666V24.4972H91.8125V17.2999H97.0908V18.5743ZM99.4199 17.2999L100.372 21.421L100.577 22.5685L100.787 21.4454L101.598 17.2999H103.185L104.039 21.421L104.259 22.5685L104.479 21.465L105.44 17.2999H106.969L104.942 24.4972H103.507L102.638 20.2882L102.384 18.8966L102.13 20.2882L101.261 24.4972H99.8643L97.8232 17.2999H99.4199Z" fill="#2D3748"/>
</g>
<g clip-path="url(#clip3_67_312)">
<rect x="72.7471" y="32.9972" width="0.00567708" height="0.00567708" fill="#C4C4C4"/>
</g>
</g>
</g>
<defs>
<filter id="filter0_d_67_312" x="4.76837e-07" y="3.57628e-07" width="145.5" height="46" filterUnits="userSpaceOnUse" color-interpolation-filters="sRGB">
<feFlood flood-opacity="0" result="BackgroundImageFix"/>
<feColorMatrix in="SourceAlpha" type="matrix" values="0 0 0 0 0 0 0 0 0 0 0 0 0 0 0 0 0 0 127 0" result="hardAlpha"/>
<feOffset dy="2"/>
<feGaussianBlur stdDeviation="2.75"/>
<feColorMatrix type="matrix" values="0 0 0 0 0 0 0 0 0 0 0 0 0 0 0 0 0 0 0.06 0"/>
<feBlend mode="normal" in2="BackgroundImageFix" result="effect1_dropShadow_67_312"/>
<feBlend mode="normal" in="SourceGraphic" in2="effect1_dropShadow_67_312" result="shape"/>
</filter>
<clipPath id="clip0_67_312">
<rect width="69" height="24.0057" fill="white" transform="translate(38.25 8.99719)"/>
</clipPath>
<clipPath id="clip1_67_312">
<rect width="69" height="15" fill="white" transform="translate(38.25 13.4972)"/>
</clipPath>
<clipPath id="clip2_67_312">
<rect width="11" height="11" fill="white" transform="translate(38.25 15.4972)"/>
</clipPath>
<clipPath id="clip3_67_312">
<rect width="24.0057" height="0.00567413" fill="white" transform="translate(60.7471 32.9972)"/>
</clipPath>
</defs>
</svg>
