<svg width="135" height="35" viewBox="0 0 135 35" fill="none" xmlns="http://www.w3.org/2000/svg">
<g clip-path="url(#clip0_67_360)">
<g clip-path="url(#clip1_67_360)">
<g clip-path="url(#clip2_67_360)">
<path d="M42.838 14.5869C42.8132 14.5387 42.7774 14.4971 42.7336 14.4654C42.6897 14.4337 42.6389 14.4128 42.5855 14.4044C42.532 14.3961 42.4773 14.4004 42.4258 14.4172C42.3743 14.434 42.3275 14.4627 42.2893 14.5009L40.9693 15.8218C40.9045 15.8856 40.8171 15.9214 40.7262 15.9214C40.6352 15.9214 40.5479 15.8856 40.4831 15.8218L39.9124 15.2503C39.8805 15.2184 39.8552 15.1805 39.8379 15.1388C39.8206 15.0971 39.8117 15.0524 39.8117 15.0072C39.8117 14.9621 39.8206 14.9173 39.8379 14.8756C39.8552 14.8339 39.8805 14.796 39.9124 14.7641L41.2269 13.4495C41.2663 13.4101 41.2955 13.3617 41.312 13.3085C41.3286 13.2553 41.332 13.1989 41.3219 13.1441C41.3117 13.0893 41.2885 13.0377 41.254 12.9939C41.2196 12.9501 41.175 12.9154 41.1242 12.8926C40.1314 12.4487 38.8921 12.6803 38.1108 13.4559C37.4469 14.1151 37.249 15.145 37.5683 16.2818C37.5855 16.3424 37.5856 16.4066 37.5686 16.4673C37.5515 16.5279 37.5181 16.5827 37.4718 16.6255L33.8951 19.8922C33.7558 20.0173 33.6434 20.1695 33.5648 20.3395C33.4862 20.5094 33.4431 20.6936 33.438 20.8808C33.4329 21.068 33.4661 21.2543 33.5354 21.4283C33.6047 21.6022 33.7087 21.7602 33.8411 21.8927C33.9735 22.0251 34.1314 22.1292 34.3054 22.1986C34.4793 22.268 34.6656 22.3012 34.8528 22.2962C35.04 22.2912 35.2242 22.2482 35.3942 22.1697C35.5642 22.0912 35.7164 21.9788 35.8416 21.8396L39.1433 18.2549C39.1855 18.2092 39.2393 18.176 39.299 18.1587C39.3588 18.1414 39.422 18.1407 39.4821 18.1567C39.8057 18.2454 40.1396 18.2914 40.4751 18.2936C41.1927 18.2936 41.8224 18.0613 42.2766 17.6138C43.1177 16.7851 43.246 15.3796 42.838 14.5869ZM34.8875 21.6043C34.746 21.6197 34.6032 21.5909 34.4788 21.5217C34.3544 21.4526 34.2545 21.3465 34.193 21.2181C34.1314 21.0898 34.1112 20.9455 34.1352 20.8052C34.1591 20.6649 34.226 20.5355 34.3266 20.4348C34.4273 20.3341 34.5567 20.2672 34.697 20.2432C34.8373 20.2192 34.9816 20.2393 35.1099 20.3008C35.2383 20.3623 35.3444 20.4622 35.4136 20.5866C35.4828 20.7109 35.5117 20.8537 35.4963 20.9952C35.4794 21.1509 35.4098 21.2962 35.2991 21.4069C35.1884 21.5177 35.0431 21.5873 34.8875 21.6043Z" fill="#2D3748"/>
</g>
<path d="M52.6016 16.09C52.6016 15.7156 52.5023 15.4487 52.3037 15.2892C52.1084 15.1297 51.8333 15.0499 51.4785 15.0499H50.0772V17.1691H51.4785C51.8333 17.1691 52.1084 17.0828 52.3037 16.9103C52.5023 16.7378 52.6016 16.4643 52.6016 16.09ZM54.0908 16.0802C54.0908 16.9298 53.876 17.5304 53.4463 17.882C53.0166 18.2335 52.403 18.4093 51.6055 18.4093H50.0772V20.9972H48.583V13.7999H51.7178C52.4404 13.7999 53.0166 13.9855 53.4463 14.3566C53.876 14.7277 54.0908 15.3022 54.0908 16.0802ZM56.7227 15.0499V16.9835H58.4268C58.7653 16.9835 59.0192 16.9445 59.1885 16.8663C59.488 16.7296 59.6377 16.4594 59.6377 16.0558C59.6377 15.6196 59.4928 15.3266 59.2031 15.1769C59.0404 15.0922 58.7962 15.0499 58.4707 15.0499H56.7227ZM58.7832 13.7999C59.2878 13.8097 59.6751 13.8715 59.9453 13.9855C60.2188 14.0994 60.4499 14.267 60.6387 14.4884C60.7949 14.6707 60.9186 14.8725 61.0098 15.0939C61.1009 15.3152 61.1465 15.5675 61.1465 15.8507C61.1465 16.1925 61.0602 16.5294 60.8877 16.8615C60.7152 17.1902 60.4303 17.423 60.0332 17.5597C60.3652 17.6932 60.5996 17.8836 60.7363 18.131C60.8763 18.3751 60.9463 18.7495 60.9463 19.254V19.7374C60.9463 20.0662 60.9593 20.2892 60.9854 20.4064C61.0244 20.5919 61.1156 20.7286 61.2588 20.8165V20.9972H59.6035C59.5579 20.8377 59.5254 20.7091 59.5059 20.6115C59.4668 20.4096 59.4456 20.2029 59.4424 19.9913L59.4326 19.3224C59.4261 18.8634 59.3415 18.5574 59.1787 18.4044C59.0192 18.2514 58.7181 18.1749 58.2754 18.1749H56.7227V20.9972H55.2529V13.7999H58.7832ZM65.6289 19.923C66.2246 19.923 66.6966 19.7032 67.0449 19.2638C67.3965 18.8243 67.5723 18.1993 67.5723 17.3888C67.5723 16.5815 67.3965 15.9581 67.0449 15.5187C66.6966 15.076 66.2246 14.8546 65.6289 14.8546C65.0332 14.8546 64.5579 15.0743 64.2031 15.5138C63.8483 15.9532 63.6709 16.5782 63.6709 17.3888C63.6709 18.1993 63.8483 18.8243 64.2031 19.2638C64.5579 19.7032 65.0332 19.923 65.6289 19.923ZM69.0762 17.3888C69.0762 18.6811 68.7132 19.6707 67.9873 20.3575C67.4437 20.9174 66.6576 21.1974 65.6289 21.1974C64.6003 21.1974 63.8141 20.9174 63.2705 20.3575C62.5413 19.6707 62.1768 18.6811 62.1768 17.3888C62.1768 16.0704 62.5413 15.0809 63.2705 14.42C63.8141 13.8601 64.6003 13.5802 65.6289 13.5802C66.6576 13.5802 67.4437 13.8601 67.9873 14.42C68.7132 15.0809 69.0762 16.0704 69.0762 17.3888ZM71.1074 18.2677V18.4337C71.1204 18.9904 71.1807 19.3826 71.2881 19.6105C71.3988 19.8351 71.6331 19.9474 71.9912 19.9474C72.346 19.9474 72.5804 19.8237 72.6943 19.5763C72.7627 19.4298 72.7969 19.1824 72.7969 18.8341V13.7999H74.3008V18.8097C74.3008 19.4217 74.195 19.9067 73.9834 20.2648C73.6253 20.8702 72.9792 21.173 72.0449 21.173C71.1107 21.173 70.484 20.9288 70.165 20.4406C69.846 19.949 69.6865 19.2801 69.6865 18.4337V18.2677H71.1074ZM81.1172 15.0743H77.3086V16.6027H80.8047V17.8527H77.3086V19.7032H81.293V20.9972H75.8389V13.7999H81.1172V15.0743ZM82.1523 17.4572C82.1523 16.2006 82.4893 15.2322 83.1631 14.5519C83.749 13.9594 84.4945 13.6632 85.3994 13.6632C86.6104 13.6632 87.4958 14.0603 88.0557 14.8546C88.3649 15.3006 88.5309 15.7482 88.5537 16.1974H87.0498C86.9521 15.8523 86.8268 15.5919 86.6738 15.4161C86.4004 15.1036 85.9951 14.9474 85.458 14.9474C84.9111 14.9474 84.4798 15.1687 84.1641 15.6115C83.8483 16.0509 83.6904 16.6743 83.6904 17.4816C83.6904 18.2889 83.8564 18.8943 84.1885 19.298C84.5238 19.6984 84.9486 19.8986 85.4629 19.8986C85.9902 19.8986 86.3923 19.726 86.6689 19.381C86.8219 19.1954 86.9489 18.9171 87.0498 18.546H88.5391C88.4089 19.3305 88.0752 19.9685 87.5381 20.4601C87.0042 20.9516 86.319 21.1974 85.4824 21.1974C84.4473 21.1974 83.6335 20.8654 83.041 20.2013C82.4486 19.534 82.1523 18.6193 82.1523 17.4572ZM94.9209 13.7999V15.0743H92.7676V20.9972H91.2539V15.0743H89.0908V13.7999H94.9209ZM96.8936 18.7755C96.9391 19.1043 97.0286 19.3501 97.1621 19.5128C97.4062 19.809 97.8245 19.9572 98.417 19.9572C98.7718 19.9572 99.0599 19.9181 99.2812 19.84C99.7012 19.6902 99.9111 19.4119 99.9111 19.005C99.9111 18.7674 99.807 18.5835 99.5986 18.4532C99.3903 18.3263 99.0632 18.214 98.6172 18.1163L97.8555 17.9454C97.1068 17.7762 96.5892 17.5922 96.3027 17.3937C95.8177 17.0616 95.5752 16.5424 95.5752 15.8361C95.5752 15.1915 95.8096 14.656 96.2783 14.2296C96.7471 13.8032 97.4355 13.59 98.3437 13.59C99.1022 13.59 99.7484 13.7918 100.282 14.1954C100.819 14.5958 101.101 15.1785 101.127 15.9435H99.6816C99.6556 15.5105 99.4668 15.2029 99.1152 15.0206C98.8809 14.9002 98.5895 14.84 98.2412 14.84C97.8538 14.84 97.5446 14.9181 97.3135 15.0743C97.0824 15.2306 96.9668 15.4487 96.9668 15.7286C96.9668 15.9858 97.0807 16.1779 97.3086 16.3048C97.4551 16.3894 97.7676 16.4887 98.2461 16.6027L99.4863 16.9005C100.03 17.0307 100.44 17.2049 100.717 17.423C101.146 17.7615 101.361 18.2514 101.361 18.8927C101.361 19.5503 101.109 20.0971 100.604 20.5333C100.103 20.9663 99.3936 21.1827 98.4756 21.1827C97.5381 21.1827 96.8008 20.9695 96.2637 20.5431C95.7266 20.1134 95.458 19.5242 95.458 18.7755H96.8936Z" fill="#2D3748"/>
</g>
<g clip-path="url(#clip3_67_360)">
<rect x="67.2471" y="29.4972" width="0.00567708" height="0.00567708" fill="#C4C4C4"/>
</g>
</g>
<defs>
<clipPath id="clip0_67_360">
<rect width="69" height="24.0057" fill="white" transform="translate(32.75 5.49719)"/>
</clipPath>
<clipPath id="clip1_67_360">
<rect width="69" height="15" fill="white" transform="translate(32.75 9.99719)"/>
</clipPath>
<clipPath id="clip2_67_360">
<rect width="11" height="11" fill="white" transform="translate(32.75 11.9972)"/>
</clipPath>
<clipPath id="clip3_67_360">
<rect width="24.0057" height="0.00567413" fill="white" transform="translate(55.2471 29.4972)"/>
</clipPath>
</defs>
</svg>
