<svg width="62" height="12" viewBox="0 0 62 12" fill="none" xmlns="http://www.w3.org/2000/svg">
<g clip-path="url(#clip0_68_516)">
<path d="M11 6C11 3.24 8.76 1 6 1C3.24 1 1 3.24 1 6C1 8.42 2.72 10.435 5 10.9V7.5H4V6H5V4.75C5 3.785 5.785 3 6.75 3H8V4.5H7C6.725 4.5 6.5 4.725 6.5 5V6H8V7.5H6.5V10.975C9.025 10.725 11 8.595 11 6Z" fill="#4FD1C5"/>
</g>
<g clip-path="url(#clip1_68_516)">
<path d="M37.625 2.56662C37.203 2.74999 36.7565 2.87079 36.2996 2.92522C36.7798 2.64406 37.1409 2.19738 37.3152 1.66897C36.8612 1.93442 36.3654 2.12067 35.8489 2.21975C35.6314 1.99183 35.3699 1.81051 35.0801 1.68681C34.7904 1.56312 34.4785 1.49964 34.1635 1.50022C32.888 1.50022 31.8559 2.5174 31.8559 3.77131C31.855 3.94572 31.8749 4.11962 31.9154 4.28928C31.0008 4.2464 30.1052 4.01309 29.2859 3.60426C28.4667 3.19543 27.7418 2.6201 27.1576 1.91506C26.9526 2.26056 26.8442 2.65476 26.8437 3.05647C26.8437 3.84397 27.2546 4.54006 27.875 4.94787C27.5074 4.93915 27.1474 4.84186 26.8255 4.66428V4.6924C26.8255 5.79396 27.6223 6.71037 28.677 6.91896C28.4787 6.97183 28.2743 6.99862 28.0691 6.99865C27.9234 6.9989 27.7781 6.98477 27.6352 6.95646C27.9284 7.85881 28.7818 8.51506 29.7927 8.53381C28.9713 9.16683 27.9628 9.50898 26.9258 9.50646C26.7417 9.50619 26.5578 9.49523 26.375 9.47365C27.43 10.1473 28.6563 10.5036 29.908 10.5002C34.1586 10.5002 36.4808 7.03849 36.4808 4.03615C36.4808 3.93772 36.4782 3.83928 36.4735 3.74318C36.9242 3.42257 37.3142 3.02415 37.625 2.56662Z" fill="#4FD1C5"/>
</g>
<path d="M58.8228 2.35404C59.3059 2.35548 59.7688 2.54802 60.1103 2.88959C60.4519 3.23117 60.6445 3.69403 60.6459 4.17709V7.82279C60.6445 8.30585 60.4519 8.76871 60.1103 9.11028C59.7688 9.45186 59.3059 9.64439 58.8228 9.64583H55.1771C54.6941 9.64439 54.2312 9.45186 53.8897 9.11028C53.5481 8.76871 53.3555 8.30585 53.3541 7.82279V4.17709C53.3555 3.69403 53.5481 3.23117 53.8897 2.88959C54.2312 2.54802 54.6941 2.35548 55.1771 2.35404H58.8228ZM58.8228 1.62494H55.1771C53.7734 1.62494 52.625 2.77338 52.625 4.17709V7.82279C52.625 9.2265 53.7734 10.3749 55.1771 10.3749H58.8228C60.2266 10.3749 61.375 9.2265 61.375 7.82279V4.17709C61.375 2.77338 60.2266 1.62494 58.8228 1.62494Z" fill="#4FD1C5"/>
<path d="M59.3696 4.177C59.2615 4.177 59.1557 4.14493 59.0658 4.08484C58.9759 4.02475 58.9058 3.93933 58.8644 3.83941C58.823 3.73948 58.8122 3.62952 58.8333 3.52344C58.8544 3.41735 58.9064 3.31991 58.9829 3.24343C59.0594 3.16695 59.1569 3.11486 59.2629 3.09376C59.369 3.07266 59.479 3.08349 59.5789 3.12488C59.6788 3.16627 59.7642 3.23637 59.8243 3.3263C59.8844 3.41623 59.9165 3.52197 59.9165 3.63013C59.9167 3.70199 59.9026 3.77317 59.8752 3.83959C59.8478 3.90601 59.8075 3.96636 59.7567 4.01717C59.7059 4.06798 59.6455 4.10826 59.5791 4.13569C59.5127 4.16312 59.4415 4.17716 59.3696 4.177Z" fill="#4FD1C5"/>
<path d="M57 4.5413C57.2884 4.5413 57.5704 4.62683 57.8102 4.78708C58.0501 4.94733 58.237 5.1751 58.3474 5.44159C58.4578 5.70808 58.4866 6.00131 58.4304 6.28421C58.3741 6.56711 58.2352 6.82698 58.0312 7.03094C57.8273 7.2349 57.5674 7.3738 57.2845 7.43007C57.0016 7.48634 56.7084 7.45746 56.4419 7.34708C56.1754 7.2367 55.9476 7.04977 55.7874 6.80994C55.6271 6.5701 55.5416 6.28814 55.5416 5.99969C55.542 5.61303 55.6958 5.24232 55.9692 4.96891C56.2426 4.69549 56.6133 4.54171 57 4.5413ZM57 3.81219C56.5674 3.81219 56.1444 3.94049 55.7847 4.18085C55.425 4.42122 55.1446 4.76286 54.979 5.16257C54.8134 5.56229 54.7701 6.00212 54.8545 6.42645C54.9389 6.85079 55.1473 7.24056 55.4532 7.54649C55.7591 7.85242 56.1489 8.06076 56.5732 8.14516C56.9976 8.22957 57.4374 8.18625 57.8371 8.02068C58.2368 7.85511 58.5785 7.57474 58.8188 7.215C59.0592 6.85527 59.1875 6.43234 59.1875 5.99969C59.1875 5.41953 58.957 4.86313 58.5468 4.4529C58.1366 4.04266 57.5802 3.81219 57 3.81219Z" fill="#4FD1C5"/>
<defs>
<clipPath id="clip0_68_516">
<rect width="12" height="12" fill="white"/>
</clipPath>
<clipPath id="clip1_68_516">
<rect width="12" height="12" fill="white" transform="translate(26)"/>
</clipPath>
</defs>
</svg>
