<svg width="135" height="35" viewBox="0 0 135 35" fill="none" xmlns="http://www.w3.org/2000/svg">
<g clip-path="url(#clip0_67_340)">
<g clip-path="url(#clip1_67_340)">
<g clip-path="url(#clip2_67_340)">
<path d="M48.4107 17.3252C48.4277 17.3252 48.4442 17.3202 48.4583 17.3109C48.4724 17.3015 48.4834 17.2882 48.49 17.2726C48.4966 17.257 48.4984 17.2398 48.4952 17.2231C48.492 17.2065 48.484 17.1912 48.4722 17.1791L46.7878 15.4664C46.7758 15.4542 46.7605 15.4459 46.7438 15.4425C46.7271 15.4391 46.7097 15.4407 46.6939 15.4472C46.6782 15.4536 46.6647 15.4647 46.6552 15.4788C46.6457 15.493 46.6406 15.5097 46.6406 15.5267V17.0674C46.6406 17.1358 46.6678 17.2013 46.7161 17.2497C46.7645 17.298 46.8301 17.3252 46.8984 17.3252H48.4107Z" fill="#2D3748"/>
<path d="M46.2324 17.7335C46.1442 17.6465 46.0741 17.5428 46.0261 17.4285C45.9782 17.3141 45.9534 17.1915 45.9531 17.0675V15.0909H44.4062C44.0419 15.092 43.6928 15.2372 43.4352 15.4949C43.1775 15.7525 43.0323 16.1016 43.0312 16.4659V21.2784C43.0312 21.6431 43.1761 21.9929 43.434 22.2507C43.6918 22.5086 44.0416 22.6534 44.4062 22.6534H47.5C47.8647 22.6534 48.2144 22.5086 48.4723 22.2507C48.7301 21.9929 48.875 21.6431 48.875 21.2784V18.0128H46.8984C46.7745 18.0126 46.6518 17.9879 46.5374 17.9399C46.4231 17.892 46.3194 17.8218 46.2324 17.7335Z" fill="#2D3748"/>
<path d="M49.9922 14.575H51.5045C51.5214 14.575 51.538 14.57 51.5521 14.5606C51.5662 14.5513 51.5772 14.5379 51.5838 14.5223C51.5903 14.5067 51.5921 14.4895 51.589 14.4729C51.5858 14.4563 51.5778 14.441 51.5659 14.4289L49.8815 12.7161C49.8696 12.704 49.8543 12.6957 49.8375 12.6922C49.8208 12.6888 49.8035 12.6904 49.7877 12.6969C49.7719 12.7034 49.7584 12.7144 49.7489 12.7286C49.7394 12.7428 49.7344 12.7594 49.7344 12.7765V14.3171C49.7344 14.3855 49.7615 14.4511 49.8099 14.4994C49.8582 14.5478 49.9238 14.575 49.9922 14.575Z" fill="#2D3748"/>
<path d="M49.9922 15.2626C49.7421 15.2607 49.5027 15.1605 49.3259 14.9836C49.149 14.8068 49.0488 14.5674 49.0469 14.3173V12.3408H46.7266C46.3848 12.3412 46.0572 12.4771 45.8155 12.7188C45.5738 12.9604 45.4379 13.2881 45.4375 13.6298V14.4033H46.3424C46.4579 14.4037 46.5722 14.427 46.6787 14.4718C46.7852 14.5165 46.8817 14.5819 46.9629 14.6641L49.3081 17.0488C49.4717 17.2149 49.5631 17.4388 49.5623 17.6719V20.5908H50.702C51.4005 20.5908 51.9685 20.0124 51.9685 19.3017V15.2626H49.9922Z" fill="black"/>
</g>
<path d="M63.2363 13.7999V15.0743H61.083V20.9972H59.5693V15.0743H57.4063V13.7999H63.2363ZM69.4424 15.0743H65.6338V16.6027H69.1299V17.8527H65.6338V19.7032H69.6182V20.9972H64.1641V13.7999H69.4424V15.0743ZM72.7578 18.2775H74.584L73.6855 15.4454L72.7578 18.2775ZM72.8506 13.7999H74.5498L77.0986 20.9972H75.4678L75.0039 19.5177H72.3525L71.8545 20.9972H70.2822L72.8506 13.7999ZM82.7871 13.7999H84.9502V20.9972H83.5488V16.129C83.5488 15.9891 83.5505 15.7937 83.5537 15.5431C83.557 15.2892 83.5586 15.0939 83.5586 14.9572L82.1963 20.9972H80.7363L79.3838 14.9572C79.3838 15.0939 79.3854 15.2892 79.3887 15.5431C79.3919 15.7937 79.3936 15.9891 79.3936 16.129V20.9972H77.9922V13.7999H80.1797L81.4883 19.4591L82.7871 13.7999ZM87.4355 18.7755C87.4811 19.1043 87.5706 19.3501 87.7041 19.5128C87.9482 19.809 88.3665 19.9572 88.959 19.9572C89.3138 19.9572 89.6019 19.9181 89.8232 19.84C90.2432 19.6902 90.4531 19.4119 90.4531 19.005C90.4531 18.7674 90.349 18.5835 90.1406 18.4532C89.9323 18.3263 89.6051 18.214 89.1592 18.1163L88.3975 17.9454C87.6488 17.7762 87.1312 17.5922 86.8447 17.3937C86.3597 17.0616 86.1172 16.5424 86.1172 15.8361C86.1172 15.1915 86.3516 14.656 86.8203 14.2296C87.2891 13.8032 87.9775 13.59 88.8857 13.59C89.6442 13.59 90.2904 13.7918 90.8242 14.1954C91.3613 14.5958 91.6429 15.1785 91.6689 15.9435H90.2236C90.1976 15.5105 90.0088 15.2029 89.6572 15.0206C89.4229 14.9002 89.1315 14.84 88.7832 14.84C88.3958 14.84 88.0866 14.9181 87.8555 15.0743C87.6243 15.2306 87.5088 15.4487 87.5088 15.7286C87.5088 15.9858 87.6227 16.1779 87.8506 16.3048C87.9971 16.3894 88.3096 16.4887 88.7881 16.6027L90.0283 16.9005C90.5719 17.0307 90.9821 17.2049 91.2588 17.423C91.6885 17.7615 91.9033 18.2514 91.9033 18.8927C91.9033 19.5503 91.651 20.0971 91.1465 20.5333C90.6452 20.9663 89.9355 21.1827 89.0176 21.1827C88.0801 21.1827 87.3428 20.9695 86.8057 20.5431C86.2686 20.1134 86 19.5242 86 18.7755H87.4355Z" fill="#2D3748"/>
</g>
<g clip-path="url(#clip3_67_340)">
<rect x="67.2471" y="29.4972" width="0.00567708" height="0.00567708" fill="#C4C4C4"/>
</g>
</g>
<defs>
<clipPath id="clip0_67_340">
<rect width="50.5" height="24.0057" fill="white" transform="translate(42 5.49719)"/>
</clipPath>
<clipPath id="clip1_67_340">
<rect width="50.5" height="15" fill="white" transform="translate(42 9.99719)"/>
</clipPath>
<clipPath id="clip2_67_340">
<rect width="11" height="11" fill="white" transform="translate(42 11.9972)"/>
</clipPath>
<clipPath id="clip3_67_340">
<rect width="24.0057" height="0.00567413" fill="white" transform="translate(55.2471 29.4972)"/>
</clipPath>
</defs>
</svg>
